<svg class="generator__canvas" viewBox="0 0 200 200" xmlns="http://www.w3.org/2000/svg">
  <path stroke-linecap="round" stroke-width="1" stroke="#6376f2" d="M3.4 5.8l3.2-1.6M3.5 16l3-2M3.7 26.2l2.6-2.4M4 36.4l2-2.8M4.3 46.6l1.4-3.2M4.9 56.8l.2-3.6M5.6 66.7l-1.2-3.4M6.2 76.3l-2.4-2.6M6.7 85.6l-3.4-1.2M6.8 94.9l-3.6.2M6.6 104.3l-3.2 1.4M6.4 113.9L3.6 116M6.1 123.6L4 126.4M6 133.5l-2 3M6 143.5l-2 3M6 153.6l-2 2.8M6.2 163.7l-2.4 2.6M6.5 174l-3 2M6.6 184.4l-3.2 1.2M6.7 194.7l-3.4.6M13.6 6l2.8-2M13.7 16.2l2.6-2.4M14 26.4l2-2.8M14.2 36.6l1.6-3.2M14.6 46.7l.8-3.4M15 56.8v-3.6M15.7 66.6l-1.4-3.2M16.2 76.3l-2.4-2.6M16.6 85.7l-3.2-1.4M16.8 95h-3.6M16.7 104.5l-3.4 1M16.5 114l-3 2M16.3 123.8l-2.6 2.4M16.1 133.6l-2.2 2.8M16 143.6l-2 2.8M16 153.6l-2 2.8M16.1 163.6l-2.2 2.8M16.3 173.8l-2.6 2.4M16.4 184l-2.8 2M16.5 194.1l-3 1.8M23.9 6.4L26 3.6M24 16.5l2-3M24.2 26.6l1.6-3.2M24.5 36.7l1-3.4M24.9 46.8l.2-3.6M25.3 56.7l-.6-3.4M25.8 66.6l-1.6-3.2M26.3 76.2l-2.6-2.4M26.6 85.7l-3.2-1.4M26.8 95.2l-3.6-.4M26.7 104.7l-3.4.6M26.6 114.3l-3.2 1.4M26.4 124l-2.8 2M26.3 133.8l-2.6 2.4M26.1 143.6l-2.2 2.8M26 153.6l-2 2.8M26 163.6l-2 2.8M26 173.6l-2 2.8M26.1 183.7l-2.2 2.6M26.2 193.7l-2.4 2.6M34.2 6.6l1.6-3.2M34.4 16.7l1.2-3.4M34.6 26.7l.8-3.4M34.9 36.8l.2-3.6M35.2 46.8l-.4-3.6M35.6 56.7l-1.2-3.4M36 66.5l-2-3M36.3 76.2l-2.6-2.4M36.6 85.8l-3.2-1.6M36.7 95.3l-3.4-.6M36.8 104.9l-3.6.2M36.7 114.5l-3.4 1M36.6 124.2l-3.2 1.6M36.4 134l-2.8 2M36.3 143.8l-2.6 2.4M36.1 153.6l-2.2 2.8M36 163.6l-2 2.8M36 173.5l-2 3M36 183.5l-2 3M36 193.5l-2 3M44.6 6.7l.8-3.4M44.8 16.8l.4-3.6M45 26.8v-3.6M45.3 36.7l-.6-3.4M45.6 46.7l-1.2-3.4M45.9 56.5l-1.8-3M46.2 66.3l-2.4-2.6M46.4 76l-2.8-2M46.6 85.7l-3.2-1.4M46.7 95.4l-3.4-.8M46.8 105h-3.6M46.7 114.7l-3.4.6M46.7 124.4l-3.4 1.2M46.5 134.1l-3 1.8M46.4 144l-2.8 2M46.3 153.8l-2.6 2.4M46.1 163.6l-2.2 2.8M46 173.5l-2 3M45.9 183.5l-1.8 3M45.8 193.4l-1.6 3.2M54.9 6.8l.2-3.6M55.2 16.8l-.4-3.6M55.4 26.7l-.8-3.4M55.7 36.6l-1.4-3.2M55.9 46.5l-1.8-3M56.1 56.4L54 53.6M56.4 66.1L53.6 64M56.5 75.9l-3-1.8M56.7 85.6l-3.4-1.2M56.7 95.4l-3.4-.8M56.8 105.1l-3.6-.2M56.8 114.9l-3.6.2M56.7 124.6l-3.4.8M56.7 134.4l-3.4 1.2M56.5 144.1l-3 1.8M56.4 154l-2.8 2M56.3 163.8l-2.6 2.4M56.1 173.6l-2.2 2.8M56 183.5l-2 3M55.8 193.4l-1.6 3.2M65.1 6.8L65 3.2M65.5 16.7l-1-3.4M65.7 26.6l-1.4-3.2M66 36.5l-2-3M66.2 46.3l-2.4-2.6M66.4 56l-2.8-2M66.5 65.9l-3-1.8M66.6 75.7l-3.2-1.4M66.7 85.5l-3.4-1M66.7 95.3l-3.4-.6M66.8 105.1l-3.6-.2M66.8 115h-3.6M66.8 124.8l-3.6.4M66.7 134.6l-3.4.8M66.7 144.4l-3.4 1.2M66.6 154.2l-3.2 1.6M66.5 164l-3 2M66.3 173.8l-2.6 2.4M66.2 183.7l-2.4 2.6M66 193.5l-2 3M75.3 6.7l-.6-3.4M75.7 16.6l-1.4-3.2M76 26.5l-2-3M76.2 36.3l-2.4-2.6M76.5 46l-3-2M76.6 55.8l-3.2-1.6M76.7 65.5l-3.4-1M76.7 75.3l-3.4-.6M76.8 85.2l-3.6-.4M76.8 95.1l-3.6-.2M76.8 105h-3.6M76.8 115h-3.6M76.8 125h-3.6M76.8 134.9l-3.6.2M76.8 144.8l-3.6.4M76.7 154.6l-3.4.8M76.7 164.4l-3.4 1.2M76.6 174.2l-3.2 1.6M76.4 184l-2.8 2M76.3 193.8l-2.6 2.4M85.4 6.7l-.8-3.4M85.8 16.6l-1.6-3.2M86.2 26.3l-2.4-2.6M86.4 36l-2.8-2M86.6 45.7l-3.2-1.4M86.7 55.4l-3.4-.8M86.8 65.2l-3.6-.4M86.8 75h-3.6M86.8 85h-3.6M86.8 95h-3.6M86.8 105h-3.6M86.8 115h-3.6M86.8 125.1l-3.6-.2M86.8 135.1l-3.6-.2M86.8 145.1l-3.6-.2M86.8 155h-3.6M86.8 164.9l-3.6.2M86.7 174.7l-3.4.6M86.7 184.5l-3.4 1M86.7 194.4l-3.4 1.2M95.4 6.7l-.8-3.4M95.9 16.5l-1.8-3M96.3 26.2l-2.6-2.4M96.6 35.8l-3.2-1.6M96.7 45.4l-3.4-.8M96.8 55h-3.6M96.8 64.8l-3.6.4M96.7 74.6l-3.4.8M96.7 84.6l-3.4.8M96.7 94.7l-3.4.6M96.8 104.8l-3.6.4M96.8 115h-3.6M96.8 125.2l-3.6-.4M96.7 135.4l-3.4-.8M96.7 145.5l-3.4-1M96.7 155.5l-3.4-1M96.7 165.4l-3.4-.8M96.7 175.3l-3.4-.6M96.8 185.2l-3.6-.4M96.8 195.1l-3.6-.2M105.3 6.7l-.6-3.4M105.9 16.5l-1.8-3M106.3 26.2l-2.6-2.4M106.6 35.6l-3.2-1.2M106.8 45.1l-3.6-.2M106.7 54.7l-3.4.6M106.7 64.4l-3.4 1.2M106.6 74.2l-3.2 1.6M106.6 84.2l-3.2 1.6M106.7 94.4l-3.4 1.2M106.7 104.6l-3.4.8M106.8 115h-3.6M106.7 125.3l-3.4-.6M106.7 135.6l-3.4-1.2M106.6 145.8l-3.2-1.6M106.5 156l-3-2M106.5 166l-3-2M106.5 176l-3-2M106.5 186l-3-2M106.5 196l-3-2M115.2 6.8l-.4-3.6M115.8 16.6l-1.6-3.2M116.4 26.1l-2.8-2.2M116.7 35.5l-3.4-1M116.8 44.9l-3.6.2M116.7 54.4l-3.4 1.2M116.5 64l-3 2M116.4 74l-2.8 2M116.4 84l-2.8 2M116.5 94.1l-3 1.8M116.7 104.4l-3.4 1.2M116.8 114.8l-3.6.4M116.7 125.3l-3.4-.6M116.6 135.7l-3.2-1.4M116.4 146l-2.8-2M116.2 156.3l-2.4-2.6M116 166.4l-2-2.8M116 176.5l-2-3M115.9 186.5l-1.8-3M115.9 196.5l-1.8-3M125 6.8V3.2M125.8 16.6l-1.6-3.2M126.4 26l-2.8-2M126.7 35.4l-3.4-.8M126.7 44.7l-3.4.6M126.5 54.1l-3 1.8M126.3 63.8l-2.6 2.4M126.2 73.7l-2.4 2.6M126.2 83.7l-2.4 2.6M126.4 93.9l-2.8 2.2M126.6 104.2l-3.2 1.6M126.7 114.7l-3.4.6M126.7 125.3l-3.4-.6M126.5 135.9l-3-1.8M126.2 146.3l-2.4-2.6M125.8 156.6l-1.6-3.2M125.5 166.7l-1-3.4M125.3 176.7l-.6-3.4M125.1 186.8l-.2-3.6M125 196.8v-3.6M135 6.8V3.2M135.7 16.6l-1.4-3.2M136.4 26l-2.8-2M136.7 35.3l-3.4-.6M136.7 44.5l-3.4 1M136.4 54l-2.8 2M136.1 63.6l-2.2 2.8M136 73.5l-2 3M136 83.5l-2 3M136.2 93.7l-2.4 2.6M136.5 104l-3 2M136.7 114.6l-3.4.8M136.7 125.3l-3.4-.6M136.5 136l-3-2M136 146.4l-2-2.8M135.5 156.7l-1-3.4M135 166.8v-3.6M134.7 176.7l.6-3.4M134.5 186.7l1-3.4M134.3 196.6l1.4-3.2M144.8 6.8l.4-3.6M145.7 16.6l-1.4-3.2M146.4 26l-2.8-2M146.8 35.2l-3.6-.4M146.7 44.4l-3.4 1.2M146.3 53.8l-2.6 2.4M146 63.5l-2 3M145.8 73.4l-1.6 3.2M145.8 83.4l-1.6 3.2M146 93.6l-2 2.8M146.4 104l-2.8 2M146.7 114.5l-3.4 1M146.7 125.3l-3.4-.6M146.4 136l-2.8-2M145.9 146.5l-1.8-3M145.2 156.8l-.4-3.6M144.7 166.7l.6-3.4M144.3 176.6l1.4-3.2M144 186.4l2-2.8M143.8 196.3l2.4-2.6M154.8 6.8l.4-3.6M155.7 16.6l-1.4-3.2M156.4 26l-2.8-2M156.8 35.2l-3.6-.4M156.6 44.4l-3.2 1.2M156.3 53.8l-2.6 2.4M155.9 63.5l-1.8 3M155.7 73.4l-1.4 3.2M155.7 83.4l-1.4 3.2M156 93.5l-2 3M156.3 103.8l-2.6 2.4M156.7 114.4l-3.4 1.2M156.8 125.2l-3.6-.4M156.4 136l-2.8-2M155.8 146.6l-1.6-3.2M155.1 156.8l-.2-3.6M154.5 166.7l1-3.4M154 176.5l2-3M153.7 186.2l2.6-2.4M153.6 196l2.8-2M164.8 6.8l.4-3.6M165.7 16.6l-1.4-3.2M166.4 26l-2.8-2M166.8 35.2l-3.6-.4M166.6 44.4l-3.2 1.2M166.3 53.8l-2.6 2.4M165.9 63.5l-1.8 3M165.6 73.4l-1.2 3.2M165.6 83.4l-1.2 3.2M165.9 93.5l-1.8 3M166.3 103.8l-2.6 2.4M166.6 114.3l-3.2 1.4M166.8 125h-3.6M166.5 135.9l-3-1.8M166 146.5l-2-3M165.2 156.8l-.4-3.6M164.6 166.7l.8-3.4M164 176.5l2-3M163.7 186.2l2.6-2.4M163.5 196l3-2M174.8 6.8l.4-3.6M175.7 16.6l-1.4-3.2M176.4 26l-2.8-2M176.8 35.2l-3.6-.4M176.7 44.4l-3.4 1.2M176.3 53.8l-2.6 2.4M176 63.5l-2 3M175.7 73.4l-1.4 3.2M175.7 83.4l-1.4 3.2M175.8 93.4l-1.6 3.2M176.2 103.7l-2.4 2.6M176.5 114.1l-3 1.8M176.8 124.8l-3.6.4M176.7 135.6l-3.4-1.2M176.2 146.3l-2.4-2.6M175.6 156.7l-1.2-3.4M174.9 166.8l.2-3.6M174.3 176.6l1.4-3.2M174 186.4l2-2.8M173.7 196.2l2.6-2.4M184.9 6.8l.2-3.6M185.7 16.6l-1.4-3.2M186.4 26l-2.8-2M186.7 35.3l-3.4-.6M186.7 44.5l-3.4 1M186.4 53.9l-2.8 2.2M186 63.6l-2 2.8M185.8 73.4l-1.6 3.2M185.7 83.4l-1.4 3.2M185.8 93.4l-1.6 3.2M186 103.6l-2 2.8M186.4 114l-2.8 2M186.7 124.5l-3.4 1M186.8 135.2l-3.6-.4M186.5 145.9l-3-1.8M186 156.4l-2-2.8M185.5 166.7l-1-3.4M184.9 176.8l.2-3.6M184.4 186.7l1.2-3.4M184 196.5l2-3M195 6.8V3.2M195.7 16.6l-1.4-3.2M196.4 26l-2.8-2M196.7 35.3l-3.4-.6M196.7 44.6l-3.4.8M196.5 54l-3 2M196.1 63.7l-2.2 2.6M195.9 73.5l-1.8 3M195.7 83.4l-1.4 3.2M195.7 93.4l-1.4 3.2M195.9 103.5l-1.8 3M196.1 113.6l-2.2 2.8M196.5 124l-3 2M196.7 134.5l-3.4 1M196.8 145.2l-3.6-.4M196.6 155.8l-3.2-1.6M196.2 166.3l-2.4-2.6M195.7 176.6l-1.4-3.2M195.2 186.8l-.4-3.6M194.7 196.7l.6-3.4"/>
</svg>
