<svg class="generator__canvas" viewBox="0 0 200 200" xmlns="http://www.w3.org/2000/svg">
  <path stroke-linecap="round" stroke-width="1" stroke="#1a1a1a" d="M4.7 6.7l.6-3.4M4.3 16.6l1.4-3.2M4 26.5l2-3M3.7 36.2l2.6-2.4M3.4 45.8l3.2-1.6M3.3 55.3l3.4-.6M3.2 64.9l3.6.2M3.3 74.5l3.4 1M3.4 84.3l3.2 1.4M3.4 94.2l3.2 1.6M3.4 104.2l3.2 1.6M3.4 114.3l3.2 1.4M3.3 124.4l3.4 1.2M3.3 134.6l3.4.8M3.2 144.9l3.6.2M3.2 155h3.6M3.3 165.3l3.4-.6M3.3 175.4l3.4-.8M3.3 185.5l3.4-1M3.3 195.5l3.4-1M15 6.8V3.2M14.6 16.7l.8-3.4M14.2 26.6l1.6-3.2M13.8 36.3l2.4-2.6M13.5 45.9l3-1.8M13.3 55.4l3.4-.8M13.2 65h3.6M13.3 74.6l3.4.8M13.4 84.3l3.2 1.4M13.4 94.2l3.2 1.6M13.5 104.1l3 1.8M13.4 114.2l3.2 1.6M13.4 124.3l3.2 1.4M13.3 134.5l3.4 1M13.3 144.6l3.4.8M13.2 154.8l3.6.4M13.2 165h3.6M13.2 175.2l3.6-.4M13.3 185.3l3.4-.6M13.3 195.3l3.4-.6M25.3 6.7l-.6-3.4M25 16.8v-3.6M24.4 26.7l1.2-3.4M24 36.4l2-2.8M23.6 46l2.8-2M23.3 55.5l3.4-1M23.2 65h3.6M23.3 74.6l3.4.8M23.4 84.3l3.2 1.4M23.4 94.2l3.2 1.6M23.5 104l3 2M23.5 114.1l3 1.8M23.4 124.2l3.2 1.6M23.4 134.3l3.2 1.4M23.3 144.5l3.4 1M23.3 154.6l3.4.8M23.2 164.8l3.6.4M23.2 175h3.6M23.2 185h3.6M23.2 195.1l3.6-.2M35.7 6.6l-1.4-3.2M35.3 16.7l-.6-3.4M34.8 26.8l.4-3.6M34.2 36.6l1.6-3.2M33.7 46.2l2.6-2.4M33.4 55.7l3.2-1.4M33.2 65.2l3.6-.4M33.2 74.8l3.6.4M33.3 84.4l3.4 1.2M33.4 94.2l3.2 1.6M33.5 104l3 2M33.5 114l3 2M33.5 124.1l3 1.8M33.4 134.2l3.2 1.6M33.4 144.3l3.2 1.4M33.3 154.5l3.4 1M33.3 164.6l3.4.8M33.2 174.8l3.6.4M33.2 184.9l3.6.2M33.2 195h3.6M46.2 6.3l-2.4-2.6M45.7 16.6l-1.4-3.2M45.2 26.8l-.4-3.6M44.6 36.7l.8-3.4M44 46.5l2-3M43.6 56l2.8-2M43.3 65.5l3.4-1M43.2 75h3.6M43.3 84.6l3.4.8M43.4 94.3l3.2 1.4M43.4 104.2l3.2 1.6M43.5 114l3 2M43.5 124.1l3 1.8M43.4 134.2l3.2 1.6M43.4 144.3l3.2 1.4M43.3 154.4l3.4 1.2M43.3 164.5l3.4 1M43.3 174.7l3.4.6M43.2 184.8l3.6.4M43.2 195h3.6M56.5 5.9l-3-1.8M56.2 16.3l-2.4-2.6M55.7 26.6l-1.4-3.2M55 36.8v-3.6M54.4 46.7l1.2-3.4M53.8 56.3l2.4-2.6M53.5 65.9l3-1.8M53.3 75.3l3.4-.6M53.2 84.9l3.6.2M53.3 94.5l3.4 1M53.4 104.3l3.2 1.4M53.4 114.2l3.2 1.6M53.4 124.2l3.2 1.6M53.4 134.2l3.2 1.6M53.4 144.3l3.2 1.4M53.3 154.4l3.4 1.2M53.3 164.5l3.4 1M53.3 174.7l3.4.6M53.2 184.8l3.6.4M53.2 195h3.6M66.7 5.3l-3.4-.6M66.6 15.8l-3.2-1.6M66.2 26.3l-2.4-2.6M65.6 36.6l-1.2-3.2M65 46.8v-3.6M64.3 56.6l1.4-3.2M63.8 66.3l2.4-2.6M63.4 75.8l3.2-1.6M63.3 85.3l3.4-.6M63.2 94.9l3.6.2M63.3 104.6l3.4.8M63.3 114.4l3.4 1.2M63.4 124.4l3.2 1.2M63.4 134.4l3.2 1.2M63.3 144.4l3.4 1.2M63.3 154.5l3.4 1M63.3 164.6l3.4.8M63.2 174.8l3.6.4M63.2 185h3.6M63.2 195h3.6M76.7 4.7l-3.4.6M76.8 15.2l-3.6-.4M76.6 25.8l-3.2-1.6M76.2 36.3l-2.4-2.6M75.6 46.7l-1.2-3.4M74.9 56.8l.2-3.6M74.2 66.6l1.6-3.2M73.7 76.2l2.6-2.4M73.4 85.8l3.2-1.6M73.3 95.3l3.4-.6M73.2 105h3.6M73.2 114.8l3.6.4M73.3 124.6l3.4.8M73.3 134.6l3.4.8M73.3 144.6l3.4.8M73.3 154.7l3.4.6M73.2 164.8l3.6.4M73.2 175h3.6M73.2 185.1l3.6-.2M73.2 195.2l3.6-.4M86.5 4l-3 2M86.7 14.5l-3.4 1M86.8 25.1l-3.6-.2M86.6 35.7l-3.2-1.4M86.2 46.3l-2.4-2.6M85.6 56.7l-1.2-3.4M84.9 66.8l.2-3.6M84.2 76.6l1.6-3.2M83.7 86.2l2.6-2.4M83.4 95.8l3.2-1.6M83.3 105.5l3.4-1M83.2 115.2l3.6-.4M83.2 125h3.6M83.2 135h3.6M83.2 145h3.6M83.2 155h3.6M83.2 165.1l3.6-.2M83.2 175.2l3.6-.4M83.3 185.4l3.4-.8M83.3 195.5l3.4-1M96.1 3.6L94 6.4M96.4 14l-2.8 2M96.7 24.4l-3.4 1.2M96.8 35h-3.6M96.6 45.7l-3.2-1.4M96.2 56.3l-2.4-2.6M95.6 66.7l-1.2-3.4M94.9 76.8l.2-3.6M94.3 86.6l1.4-3.2M93.8 96.3l2.4-2.6M93.5 106l3-2M93.4 115.7l3.2-1.4M93.3 125.5l3.4-1M93.3 135.4l3.4-.8M93.3 145.4l3.4-.8M93.3 155.4l3.4-.8M93.3 165.5l3.4-1M93.3 175.5l3.4-1M93.4 185.6l3.2-1.2M93.4 195.7l3.2-1.4M105.6 3.3l-1.2 3.4M106 13.5l-2 3M106.3 23.8l-2.6 2.4M106.6 34.4l-3.2 1.2M106.8 45h-3.6M106.6 55.7l-3.2-1.4M106.2 66.3l-2.4-2.6M105.6 76.7l-1.2-3.4M105 86.8v-3.6M104.4 96.7l1.2-3.4M104 106.4l2-2.8M103.7 116.2l2.6-2.4M103.6 126l2.8-2M103.5 135.9l3-1.8M103.4 145.8l3.2-1.6M103.4 155.8l3.2-1.6M103.4 165.8l3.2-1.6M103.5 175.9l3-1.8M103.5 186l3-2M103.5 196l3-2M115.1 3.2l-.2 3.6M115.4 13.3l-.8 3.4M115.9 23.5l-1.8 3M116.3 33.8l-2.6 2.4M116.6 44.4l-3.2 1.2M116.8 55h-3.6M116.6 65.7l-3.2-1.4M116.2 76.3l-2.4-2.6M115.6 86.6l-1.2-3.2M115 96.8v-3.6M114.6 106.7l.8-3.4M114.2 116.6l1.6-3.2M114 126.4l2-2.8M113.8 136.3l2.4-2.6M113.7 146.2l2.6-2.4M113.6 156.1l2.8-2.2M113.6 166.1l2.8-2.2M113.6 176.1l2.8-2.2M113.7 186.1l2.6-2.2M113.7 196.2l2.6-2.4M124.7 3.3l.6 3.4M125 13.2v3.6M125.4 23.3l-.8 3.4M125.9 33.5l-1.8 3M126.3 43.8l-2.6 2.4M126.7 54.4l-3.4 1.2M126.8 65.1l-3.6-.2M126.6 75.8l-3.2-1.6M126.2 86.3l-2.4-2.6M125.7 96.6l-1.4-3.2M125.2 106.8l-.4-3.6M124.7 116.7l.6-3.4M124.4 126.7l1.2-3.4M124.2 136.6l1.6-3.2M124 146.5l2-3M124 156.4l2-2.8M123.9 166.4l2.2-2.8M123.8 176.3l2.4-2.6M123.8 186.3l2.4-2.6M123.8 196.3l2.4-2.6M134.4 3.3l1.2 3.4M134.6 13.3l.8 3.4M135 23.2v3.6M135.4 33.3l-.8 3.4M136 43.5l-2 3M136.4 54l-2.8 2M136.7 64.5l-3.4 1M136.8 75.2l-3.6-.4M136.6 85.8l-3.2-1.6M136.2 96.3l-2.4-2.6M135.7 106.6l-1.4-3.2M135.3 116.7l-.6-3.4M134.9 126.8l.2-3.6M134.6 136.7l.8-3.4M134.4 146.7l1.2-3.4M134.2 156.6l1.6-3.2M134 166.5l2-3M134 176.5l2-3M134 186.4l2-2.8M134 196.4l2-2.8M144.2 3.4l1.6 3.2M144.4 13.3l1.2 3.4M144.7 23.3l.6 3.4M145 33.2v3.6M145.6 43.3l-1.2 3.4M146 53.6l-2 2.8M146.5 64l-3 2M146.7 74.7l-3.4.6M146.7 85.3l-3.4-.6M146.5 95.9l-3-1.8M146.2 106.3l-2.4-2.6M145.8 116.6l-1.6-3.2M145.3 126.7l-.6-3.4M145 136.8v-3.6M144.7 146.7l.6-3.4M144.4 156.7l1.2-3.4M144.3 166.6l1.4-3.2M144.1 176.5l1.8-3M144 186.5l2-3M144 196.4l2-2.8M154.2 3.4l1.6 3.2M154.3 13.4l1.4 3.2M154.5 23.3l1 3.4M154.9 33.2l.2 3.6M155.3 43.3l-.6 3.4M155.8 53.4l-1.6 3.2M156.3 63.8l-2.6 2.4M156.6 74.3l-3.2 1.4M156.8 84.9l-3.6.2M156.7 95.5l-3.4-1M156.5 106l-3-2M156 116.4l-2-2.8M155.7 126.6l-1.4-3.2M155.3 136.7l-.6-3.4M155 146.8v-3.6M154.6 156.7l.8-3.4M154.4 166.7l1.2-3.4M154.2 176.6l1.6-3.2M154 186.5l2-3M154 196.4l2-2.8M164.3 3.4l1.4 3.2M164.3 13.4l1.4 3.2M164.5 23.3l1 3.4M164.8 33.2l.4 3.6M165.2 43.2l-.4 3.6M165.7 53.4l-1.4 3.2M166.1 63.6l-2.2 2.8M166.5 74l-3 2M166.7 84.6l-3.4.8M166.8 95.2l-3.6-.4M166.6 105.7l-3.2-1.4M166.3 116.2l-2.6-2.4M166 126.5l-2-3M165.5 136.7l-1-3.4M165.1 146.8l-.2-3.6M164.8 156.8l.4-3.6M164.5 166.7l1-3.4M164.2 176.6l1.6-3.2M164 186.5l2-3M163.9 196.4l2.2-2.8M174.5 3.3l1 3.4M174.5 13.3l1 3.4M174.6 23.3l.8 3.4M174.9 33.2l.2 3.6M175.2 43.2l-.4 3.6M175.6 53.3l-1.2 3.4M176 63.6l-2 2.8M176.4 74l-2.8 2M176.7 84.4l-3.4 1.2M176.8 95h-3.6M176.7 105.5l-3.4-1M176.4 116l-2.8-2M176 126.4l-2-2.8M175.6 136.6l-1.2-3.2M175.2 146.8l-.4-3.6M174.8 156.8l.4-3.6M174.5 166.7l1-3.4M174.2 176.6l1.6-3.2M174 186.5l2-3M173.8 196.3l2.4-2.6M184.8 3.2l.4 3.6M184.8 13.2l.4 3.6M185 23.2v3.6M185.1 33.2l-.2 3.6M185.4 43.3l-.8 3.4M185.7 53.4l-1.4 3.2M186 63.6l-2 2.8M186.4 74l-2.8 2M186.7 84.4l-3.4 1.2M186.8 95h-3.6M186.7 105.5l-3.4-1M186.5 116l-3-2M186.1 126.4l-2.2-2.8M185.7 136.6l-1.4-3.2M185.3 146.7l-.6-3.4M184.8 156.8l.4-3.6M184.5 166.7l1-3.4M184.2 176.6l1.6-3.2M184 186.4l2-2.8M183.7 196.2l2.6-2.4M195.3 3.3l-.6 3.4M195.3 13.3l-.6 3.4M195.3 23.3l-.6 3.4M195.5 33.3l-1 3.4M195.7 43.4l-1.4 3.2M196 53.5l-2 3M196.3 63.8l-2.6 2.4M196.5 74l-3 2M196.7 84.5l-3.4 1M196.8 95h-3.6M196.7 105.5l-3.4-1M196.5 116l-3-2M196.2 126.3l-2.4-2.6M195.7 136.6l-1.4-3.2M195.3 146.7l-.6-3.4M194.8 156.8l.4-3.6M194.4 166.7l1.2-3.4M194.1 176.5l1.8-3M193.9 186.4l2.2-2.8M193.7 196.2l2.6-2.4"/>
</svg>
