<svg width="51" height="31" fill="none" xmlns="http://www.w3.org/2000/svg"><path fill-rule="evenodd" clip-rule="evenodd" d="M50.92 15.205c0-8.284-6.716-15-15-15a14.852 14.852 0 0 0-9.45 3.367c1.971 1.902 3.476 4.284 4.283 6.977h-1.247a14.96 14.96 0 0 0-3.936-6.201 15.002 15.002 0 0 0-3.91 6.193h-1.247a16.186 16.186 0 0 1 4.237-6.96C22.073 1.496 18.818.205 15.243.205c-8.284 0-15 6.716-15 15 0 8.285 6.716 15 15 15 3.574 0 6.83-1.29 9.407-3.377a16.185 16.185 0 0 1-4.237-6.96h1.246a15.005 15.005 0 0 0 3.911 6.194 14.958 14.958 0 0 0 3.936-6.2h1.247c-.807 2.692-2.312 5.074-4.282 6.976a14.854 14.854 0 0 0 9.449 3.367c8.284 0 15-6.715 15-15Z" fill="#fff"/><path fill-rule="evenodd" clip-rule="evenodd" d="m39.896 18.718 1.035-5.55h1.31l.137.547c.234-.274.684-.547 1.446-.547l-.41 1.446c-.372 0-1.075-.097-1.524 1.564l-.47 2.54h-1.524Zm-20.07-6.96h1.508l-.31 1.47h.813l-.27 1.2h-.774l-.426 2.244c-.078.426-.039.813.832.678l-.097 1.121c-.329.213-.774.272-1.122.272-.349 0-1.49-.213-1.2-1.722l1.045-5.263Zm6.54 4.489c.173-.89.58-3.096-2.07-3.096-2.44 0-2.748 2.418-2.806 2.766-.058.349-.097 2.806 2.515 2.806.639.02 1.567-.058 1.935-.252l.232-1.14c-.232.057-1.103.134-1.703.134-.6 0-1.567.04-1.393-1.218h3.29Zm-7.972-1.78.348-1.123c-.716-.27-1.277-.212-1.49-.212-.213 0-2.025-.023-2.302 1.315-.213 1.026.162 1.45.522 1.606.58.252.91.484 1.22.639.382.191.312.832-.194.832-.233 0-1.239.116-1.993-.136l-.213 1.141c.697.194 1.257.194 1.78.194.368 0 2.167.097 2.418-1.567.123-.812-.232-1.18-.522-1.354a8.526 8.526 0 0 0-1.083-.6c-.31-.136-.542-.658.019-.813.348-.038 1.064-.038 1.49.078Zm-9.79 4.256 1.257-6.695H7.384l-1.838 4.064-.29-4.064H2.837l-1.296 6.695H3.05l.928-4.837.407 4.837h1.432l2.109-4.72-.89 4.72h1.567Zm1.663-5.398-.232 1.2c.368-.039 1.354-.194 1.877-.175.522.02 1.102-.057.928.774-.387.04-3.095-.387-3.52 1.935-.175 1.142.812 1.722 1.585 1.684.774-.039.987-.136 1.258-.33l.194.31h1.412l.6-3.018c.155-.755.406-2.574-2.128-2.574-.465.02-.987 0-1.974.194Zm24.457.251c-.388-.232-.658-.27-1.161-.27s-1.626.48-1.838 1.838c-.252 1.606.85 2.399 2.4 1.877l.444 1.354c-.503.232-1.006.348-1.838.348-1.568 0-3.27-1.393-2.496-4.218.57-2.082 2.36-2.844 3.406-2.805 1.237.046 1.683.464 2.07.89l-.987.986Zm12.867.232c-.29-.212-.464-.657-1.18-.657-.833 0-2.129-.155-2.864 2.36-.492 1.681.503 3.212 1.586 3.212a2.65 2.65 0 0 0 1.315-.445l.195.445h1.624l1.317-7.042h-1.588l-.405 2.127Zm-11.784-.483-.232 1.2c.368-.039 1.354-.194 1.877-.175.522.02 1.103-.057.929.774-.387.04-3.096-.387-3.521 1.935-.175 1.142.812 1.722 1.586 1.684.774-.039.986-.136 1.258-.33l.193.31h1.412l.6-3.018c.155-.755.407-2.574-2.128-2.574-.464.02-.987 0-1.974.194Z" fill="#292929"/><path fill-rule="evenodd" clip-rule="evenodd" d="M23.173 15.24h1.877c.097-.541-.077-1.006-.677-1.006-.6 0-1.026.31-1.2 1.007ZM12.59 16.248c-.252-.04-.813-.194-1.297.135s-.619.909-.116 1.103c.484.186 1.2-.135 1.297-.64l.116-.598Zm34.46-.175c.155-.503.07-1.13-.097-1.353-.464-.62-1.532-.13-1.857 1.083-.213.793.251 1.393.774 1.393.56 0 .909-.445 1.18-1.123Zm-8.92.175c-.252-.04-.812-.194-1.296.135s-.62.909-.116 1.103c.484.186 1.199-.135 1.296-.64l.116-.598Z" fill="#fff"/><path fill-rule="evenodd" clip-rule="evenodd" d="m26.407 18.723 1.026-5.495h1.296l.135.542c.233-.271.678-.542 1.432-.542l-.387 1.452c-.367 0-1.084-.116-1.529 1.527l-.463 2.516h-1.51Z" fill="#292929"/></svg>