<svg width="49" height="49" fill="none" xmlns="http://www.w3.org/2000/svg"><g clip-path="url(#a)" fill="#fff"><path d="M19.562 17.086 17.13 31.352h3.888l2.433-14.266h-3.89Zm-5.691.016-3.808 9.73-.406-1.47c-.751-1.77-2.883-4.311-5.386-5.913l3.482 11.896 4.114-.006 6.123-14.24-4.119.003Z"/><path d="M8.18 18.123c-.225-.869-.88-1.128-1.693-1.159H.459l-.05.285c4.69 1.138 7.795 3.88 9.083 7.177L8.18 18.123Zm23.152 1.698a7.178 7.178 0 0 1 2.91.546l.35.165.527-3.092c-.77-.289-1.977-.599-3.483-.599-3.842 0-6.55 1.935-6.571 4.708-.025 2.05 1.929 3.193 3.405 3.876 1.515.7 2.023 1.145 2.016 1.77-.012.955-1.208 1.393-2.325 1.393-1.557 0-2.384-.215-3.661-.747l-.501-.228-.547 3.193c.91.4 2.589.742 4.332.76 4.087 0 6.743-1.912 6.77-4.875.018-1.62-1.02-2.858-3.266-3.873-1.36-.662-2.192-1.102-2.184-1.77 0-.593.706-1.227 2.228-1.227Zm13.765-2.719h-3.004c-.933 0-1.627.254-2.037 1.184L34.283 31.36h4.083s.666-1.758.817-2.143l4.979.006c.116.498.474 2.137.474 2.137h3.607l-3.146-14.258Zm-4.795 9.195c.32-.819 1.549-3.987 1.549-3.987-.021.04.317-.825.518-1.362l.262 1.23.901 4.12h-3.23Z"/></g><defs><clipPath id="a"><path fill="#fff" transform="translate(.409 .287)" d="M0 0h47.834v47.834H0z"/></clipPath></defs></svg>